<?xml version="1.0" standalone="no"?>
<!DOCTYPE svg PUBLIC "-//W3C//DTD SVG 20010904//EN"
 "http://www.w3.org/TR/2001/REC-SVG-20010904/DTD/svg10.dtd">
<svg version="1.0" xmlns="http://www.w3.org/2000/svg"
 width="100.000000pt" height="100.000000pt" viewBox="0 0 100.000000 100.000000"
 preserveAspectRatio="xMidYMid meet">
<metadata>
Created by potrace 1.11, written by Peter Selinger 2001-2013
</metadata>
<g transform="translate(0.000000,100.000000) scale(0.100000,-0.100000)"
fill="#000000" stroke="none">
<path d="M438 876 c-13 -18 -52 -66 -88 -106 -36 -40 -70 -80 -76 -88 -8 -11
-32 -17 -75 -19 -46 -2 -68 -8 -77 -20 -8 -11 -12 -58 -12 -144 0 -137 7 -158
53 -160 80 -3 97 -6 105 -14 40 -47 148 -171 152 -175 3 -3 13 -17 23 -32 21
-34 70 -39 87 -9 14 27 14 755 0 782 -18 32 -65 25 -92 -15z m72 -376 c0 -324
-2 -379 -15 -384 -19 -7 -44 29 -38 55 3 10 0 19 -6 19 -6 0 -11 -5 -11 -10 0
-6 -17 9 -37 32 -21 24 -42 48 -48 54 -5 6 -27 30 -48 53 -36 40 -43 43 -95
46 -32 1 -60 3 -64 4 -5 0 -8 59 -8 131 0 72 3 131 8 131 4 1 33 3 65 4 55 2
59 4 95 46 20 24 44 51 52 59 8 9 30 33 48 53 17 21 32 33 32 27 0 -5 5 -10
11 -10 5 0 9 8 8 18 -5 26 19 62 36 56 13 -5 15 -59 15 -384z"/>
<path d="M446 781 c-4 -7 -5 -15 -2 -18 9 -9 19 4 14 18 -4 11 -6 11 -12 0z"/>
<path d="M440 731 c0 -6 5 -13 10 -16 6 -3 10 1 10 9 0 9 -4 16 -10 16 -5 0
-10 -4 -10 -9z"/>
<path d="M440 675 c0 -8 5 -15 10 -15 6 0 10 7 10 15 0 8 -4 15 -10 15 -5 0
-10 -7 -10 -15z"/>
<path d="M440 624 c0 -8 5 -12 10 -9 6 3 10 10 10 16 0 5 -4 9 -10 9 -5 0 -10
-7 -10 -16z"/>
<path d="M250 600 c0 -5 7 -10 15 -10 8 0 15 5 15 10 0 6 -7 10 -15 10 -8 0
-15 -4 -15 -10z"/>
<path d="M446 581 c-4 -7 -5 -15 -2 -18 9 -9 19 4 14 18 -4 11 -6 11 -12 0z"/>
<path d="M250 550 c0 -5 4 -10 9 -10 6 0 13 5 16 10 3 6 -1 10 -9 10 -9 0 -16
-4 -16 -10z"/>
<path d="M440 531 c0 -6 5 -13 10 -16 6 -3 10 1 10 9 0 9 -4 16 -10 16 -5 0
-10 -4 -10 -9z"/>
<path d="M250 500 c0 -5 7 -10 16 -10 8 0 12 5 9 10 -3 6 -10 10 -16 10 -5 0
-9 -4 -9 -10z"/>
<path d="M440 475 c0 -8 5 -15 10 -15 6 0 10 7 10 15 0 8 -4 15 -10 15 -5 0
-10 -7 -10 -15z"/>
<path d="M250 450 c0 -5 4 -10 9 -10 6 0 13 5 16 10 3 6 -1 10 -9 10 -9 0 -16
-4 -16 -10z"/>
<path d="M440 425 c0 -8 5 -15 10 -15 6 0 10 7 10 15 0 8 -4 15 -10 15 -5 0
-10 -7 -10 -15z"/>
<path d="M250 400 c0 -5 7 -10 16 -10 8 0 12 5 9 10 -3 6 -10 10 -16 10 -5 0
-9 -4 -9 -10z"/>
<path d="M440 381 c0 -6 5 -13 10 -16 6 -3 10 1 10 9 0 9 -4 16 -10 16 -5 0
-10 -4 -10 -9z"/>
<path d="M440 325 c0 -8 5 -15 10 -15 6 0 10 7 10 15 0 8 -4 15 -10 15 -5 0
-10 -7 -10 -15z"/>
<path d="M440 276 c0 -9 5 -16 10 -16 6 0 10 4 10 9 0 6 -4 13 -10 16 -5 3
-10 -1 -10 -9z"/>
<path d="M440 224 c0 -8 5 -12 10 -9 6 3 10 10 10 16 0 5 -4 9 -10 9 -5 0 -10
-7 -10 -16z"/>
<path d="M647 726 c-3 -7 7 -23 23 -35 80 -58 112 -192 70 -289 -13 -30 -39
-67 -61 -85 -24 -21 -35 -37 -30 -45 11 -18 83 54 112 110 34 66 33 165 -4
240 -31 62 -101 129 -110 104z"/>
<path d="M585 651 c-3 -6 10 -26 29 -46 61 -61 61 -154 -1 -211 -41 -38 -37
-66 5 -33 96 75 92 208 -10 287 -11 9 -18 9 -23 3z"/>
</g>
</svg>
